# xmcd
#
# Track frame offsets:
#	150
#	21457
#	36530
#	52239
#	70666
#	89822
#	101437
#	121568
#	138500
#	157089
#	174509
#	190726
#
# Disc length: 2818 seconds
#
# Revision: 0
# Processed by: cddbd v1.5.1PL2 Copyright (c) Steve Scherf et al.
# Submitted via: EasyCDDAExtractor 9.0.0.1
#
DISCID=ac0b000c
DTITLE=Elvis Presley - The Original Elvis Presley Collection 35 - That's The W
DTITLE=ay It Is
DYEAR=1970
DGENRE=
TTITLE0=I Just Can't Help Believin'
TTITLE1=Twenty Days and Twenty Nights
TTITLE2=How the Web Was Woven
TTITLE3=Patch It Up
TTITLE4=Mary in the Morning
TTITLE5=You Don't Have to Say You Love Me
TTITLE6=You've Lost That Lovin' Feelin'
TTITLE7=I've Lost You
TTITLE8=Just Pretend
TTITLE9=Stranger in the Crowd
TTITLE10=The Next Step Is Love
TTITLE11=Bridge Over Troubled Water
EXTD=
EXTT0=
EXTT1=
EXTT2=
EXTT3=
EXTT4=
EXTT5=
EXTT6=
EXTT7=
EXTT8=
EXTT9=
EXTT10=
EXTT11=
PLAYORDER=
